HIERARCHY
ROOT hip
{
  OFFSET 0.0 0.0 0.0
  CHANNELS 6 Xposition Yposition Zposition Zrotation Yrotation Xrotation
  JOINT abdomen
  {
    OFFSET 0.0 20.6881 -0.73152
    CHANNELS 3 Zrotation Xrotation Yrotation
    JOINT chest
    {
      OFFSET 0.0 11.7043 -0.48768
      CHANNELS 3 Zrotation Xrotation Yrotation
      JOINT neck
      {
        OFFSET 0.0 22.1894 -2.19456
        CHANNELS 3 Zrotation Xrotation Yrotation
        JOINT head
        {
          OFFSET -0.24384 7.07133 1.2192
          CHANNELS 3 Zrotation Xrotation Yrotation
          JOINT leftEye
          {
            OFFSET 4.14528 8.04674 8.04672
            CHANNELS 3 Zrotation Xrotation Yrotation
            End Site
            {
              OFFSET 1.0 0.0 0.0
            }
          }
          JOINT rightEye
          {
            OFFSET -3.6576 8.04674 8.04672
            CHANNELS 3 Zrotation Xrotation Yrotation
            End Site
            {
              OFFSET 1.0 0.0 0.0
            }
          }
        }
      }
      JOINT rCollar
      {
        OFFSET -2.68224 19.2634 -4.8768
        CHANNELS 3 Zrotation Xrotation Yrotation
        JOINT rShldr
        {
          OFFSET -8.77824 -1.95073 1.46304
          CHANNELS 3 Zrotation Xrotation Yrotation
          JOINT rForeArm
          {
            OFFSET -28.1742 -1.7115 0.48768
            CHANNELS 3 Zrotation Xrotation Yrotation
            JOINT rHand
            {
              OFFSET -22.5879 0.773209 7.07136
              CHANNELS 3 Zrotation Xrotation Yrotation
              JOINT rThumb1
              {
                OFFSET -1.2192 -0.487915 3.41376
                CHANNELS 3 Zrotation Xrotation Yrotation
                JOINT rThumb2
                {
                  OFFSET -3.37035 -0.52449 3.41376
                  CHANNELS 3 Zrotation Xrotation Yrotation
                  End Site
                  {
                    OFFSET -1.78271 -1.18214 1.43049
                  }
                }
              }
              JOINT rIndex1
              {
                OFFSET -7.75947 0.938293 5.60832
                CHANNELS 3 Zrotation Xrotation Yrotation
                JOINT rIndex2
                {
                  OFFSET -2.54057 -0.884171 1.56538
                  CHANNELS 3 Zrotation Xrotation Yrotation
                  End Site
                  {
                    OFFSET -1.62519 -0.234802 1.16502
                  }
                }
              }
              JOINT rMid1
              {
                OFFSET -8.24714 1.18213 3.41376
                CHANNELS 3 Zrotation Xrotation Yrotation
                JOINT rMid2
                {
                  OFFSET -3.10165 -0.590103 1.0647
                  CHANNELS 3 Zrotation Xrotation Yrotation
                  End Site
                  {
                    OFFSET -2.48547 -0.328903 0.83742
                  }
                }
              }
              JOINT rRing1
              {
                OFFSET -8.82822 0.546677 1.51678
                CHANNELS 3 Zrotation Xrotation Yrotation
                JOINT rRing2
                {
                  OFFSET -2.60934 -0.819778 -0.0198488
                  CHANNELS 3 Zrotation Xrotation Yrotation
                  End Site
                  {
                    OFFSET -2.33842 -0.294052 0.168128
                  }
                }
              }
              JOINT rPinky1
              {
                OFFSET -8.27202 -0.0477905 -0.4584
                CHANNELS 3 Zrotation Xrotation Yrotation
                JOINT rPinky2
                {
                  OFFSET -1.82734 -0.647385 -0.700984
                  CHANNELS 3 Zrotation Xrotation Yrotation
                  End Site
                  {
                    OFFSET -1.69225 -0.51767 -0.607171
                  }
                }
              }
            }
          }
        }
      }
      JOINT lCollar
      {
        OFFSET 2.68224 19.2634 -4.8768
        CHANNELS 3 Zrotation Xrotation Yrotation
        JOINT lShldr
        {
          OFFSET 8.77824 -1.95073 1.46304
          CHANNELS 3 Zrotation Xrotation Yrotation
          JOINT lForeArm
          {
            OFFSET 28.1742 -1.7115 0.48768
            CHANNELS 3 Zrotation Xrotation Yrotation
            JOINT lHand
            {
              OFFSET 22.5879 0.773209 7.07136
              CHANNELS 3 Zrotation Xrotation Yrotation
              JOINT lThumb1
              {
                OFFSET 1.2192 -0.487915 3.41376
                CHANNELS 3 Zrotation Xrotation Yrotation
                JOINT lThumb2
                {
                  OFFSET 3.37035 -0.52449 3.41376
                  CHANNELS 3 Zrotation Xrotation Yrotation
                  End Site
                  {
                    OFFSET 1.78271 -1.18214 1.43049
                  }
                }
              }
              JOINT lIndex1
              {
                OFFSET 7.75947 0.938293 5.60832
                CHANNELS 3 Zrotation Xrotation Yrotation
                JOINT lIndex2
                {
                  OFFSET 2.54057 -0.884171 1.56538
                  CHANNELS 3 Zrotation Xrotation Yrotation
                  End Site
                  {
                    OFFSET 1.62519 -0.234802 1.16502
                  }
                }
              }
              JOINT lMid1
              {
                OFFSET 8.24714 1.18213 3.41376
                CHANNELS 3 Zrotation Xrotation Yrotation
                JOINT lMid2
                {
                  OFFSET 3.10165 -0.590103 1.0647
                  CHANNELS 3 Zrotation Xrotation Yrotation
                  End Site
                  {
                    OFFSET 2.48547 -0.328903 0.83742
                  }
                }
              }
              JOINT lRing1
              {
                OFFSET 8.82822 0.546677 1.51678
                CHANNELS 3 Zrotation Xrotation Yrotation
                JOINT lRing2
                {
                  OFFSET 2.60934 -0.819778 -0.0198488
                  CHANNELS 3 Zrotation Xrotation Yrotation
                  End Site
                  {
                    OFFSET 2.33842 -0.294052 0.168128
                  }
                }
              }
              JOINT lPinky1
              {
                OFFSET 8.27202 -0.0477905 -0.4584
                CHANNELS 3 Zrotation Xrotation Yrotation
                JOINT lPinky2
                {
                  OFFSET 1.82734 -0.647385 -0.700984
                  CHANNELS 3 Zrotation Xrotation Yrotation
                  End Site
                  {
                    OFFSET 1.69225 -0.51767 -0.607171
                  }
                }
              }
            }
          }
        }
      }
    }
  }
  JOINT rButtock
  {
    OFFSET -8.77824 4.35084 1.2192
    CHANNELS 3 Zrotation Xrotation Yrotation
    JOINT rThigh
    {
      OFFSET 0.0 -1.70687 -2.19456
      CHANNELS 3 Zrotation Xrotation Yrotation
      JOINT rShin
      {
        OFFSET 0.0 -36.8199 0.73152
        CHANNELS 3 Zrotation Xrotation Yrotation
        JOINT rFoot
        {
          OFFSET 0.73152 -45.1104 -5.12064
          CHANNELS 3 Zrotation Xrotation Yrotation
          End Site
          {
            OFFSET -1.1221 -3.69964 12.103
          }
        }
      }
    }
  }
  JOINT lButtock
  {
    OFFSET 8.77824 4.35084 1.2192
    CHANNELS 3 Zrotation Xrotation Yrotation
    JOINT lThigh
    {
      OFFSET 0.0 -1.70687 -2.19456
      CHANNELS 3 Zrotation Xrotation Yrotation
      JOINT lShin
      {
        OFFSET 0.0 -36.8199 0.73152
        CHANNELS 3 Zrotation Xrotation Yrotation
        JOINT lFoot
        {
          OFFSET -0.73152 -45.1104 -5.12064
          CHANNELS 3 Zrotation Xrotation Yrotation
          End Site
          {
            OFFSET 1.1221 -3.69964 12.103
          }
        }
      }
    }
  }
}
MOTION
Frames: 5
Frame Time: 0.00833333
-165.958 73.2163 -27.0522 -188.447 86.0725 -174.438 1.81759 44.2638 -3.20679 -4.1091 -7.27371 0.101965 3.42887 16.0367 -1.93107 0.857504 -60.8339 -2.37128 -0.0 0.0 0.0 -0.0 0.0 0.0 1.43399e-14 -1.25154e-12 -8.89561e-14 75.7001 32.8196 6.17409 -19.7792 -12.7365 38.1464 -0.0235843 -4.37977 -0.616751 1.02268e-09 5.16757e-10 -1.73219e-10 1.7722e-09 8.93485e-10 -2.97395e-10 1.02269e-09 5.16763e-10 -1.73245e-10 7.73091 5.47488 0.417314 1.02268e-09 5.16758e-10 -1.73223e-10 2.90554 0.965183 0.102902 1.0227e-09 5.16767e-10 -1.7324e-10 10.2786 0.731801 0.0259123 1.02267e-09 5.16757e-10 -1.7321e-10 2.22167 -0.733487 -0.20892 1.42861e-14 -1.25155e-12 -8.91052e-14 -77.1119 21.4921 0.205335 16.3498 -9.01639 -30.4147 0.732126 -23.5477 3.51145 -2.03148e-10 -2.74235e-11 -7.62913e-10 -3.43454e-10 -5.1913e-11 -1.32131e-09 -2.03153e-10 -2.74259e-11 -7.62907e-10 -7.73091 5.47488 -0.417314 -2.03148e-10 -2.74267e-11 -7.62926e-10 -2.90554 0.965183 -0.102902 -2.03153e-10 -2.74238e-11 -7.62908e-10 -10.2786 0.731801 -0.0259123 -2.03144e-10 -2.74235e-11 -7.62913e-10 -2.22167 -0.733487 0.20892 -2.03217e-16 0.0 -3.88251e-19 -11.5981 -58.9681 -13.4254 -4.36391 78.2023 4.43083 -0.300167 15.9899 0.478196 2.03217e-16 0.0 3.88251e-19 34.1237 -69.2413 54.7753 1.48705 63.5397 -1.21387 2.38942 21.3599 -5.74435
-165.413 73.216 -27.1077 -187.754 86.28 -173.69 1.68571 44.1972 -3.11676 -4.15233 -7.24125 0.11411 3.4225 16.0731 -1.90531 0.901447 -60.8732 -2.28521 -0.0 0.0 0.0 -0.0 0.0 0.0 2.12293e-14 -1.06964e-12 -8.14427e-14 75.7292 32.8561 6.18776 -19.7637 -12.7174 38.1093 -0.0228763 -4.31409 -0.607465 7.75996e-10 4.24525e-10 -1.61147e-10 1.34465e-09 7.34077e-10 -2.77163e-10 7.76008e-10 4.24531e-10 -1.61172e-10 7.73091 5.47488 0.417314 7.75998e-10 4.24526e-10 -1.61151e-10 2.90554 0.965183 0.102902 7.76016e-10 4.24534e-10 -1.61165e-10 10.2786 0.731801 0.0259123 7.75991e-10 4.24526e-10 -1.61138e-10 2.22167 -0.733487 -0.20892 2.11754e-14 -1.06965e-12 -8.15984e-14 -77.2076 21.5109 0.262786 16.3308 -8.99829 -30.3742 0.74035 -23.6708 3.53208 -1.21536e-10 -8.94356e-12 -5.93913e-10 -2.04007e-10 -1.84483e-11 -1.02772e-09 -1.21541e-10 -8.94442e-12 -5.93905e-10 -7.73091 5.47488 -0.417314 -1.21536e-10 -8.94594e-12 -5.93924e-10 -2.90554 0.965183 -0.102902 -1.21541e-10 -8.94367e-12 -5.9391e-10 -10.2786 0.731801 -0.0259123 -1.21532e-10 -8.94354e-12 -5.93917e-10 -2.22167 -0.733487 0.20892 -2.03217e-16 0.0 -3.88251e-19 -11.5525 -58.6701 -13.4261 -4.40344 78.268 4.4533 -0.303386 15.9924 0.605588 2.03217e-16 0.0 3.88251e-19 33.5525 -69.2768 54.6088 1.32869 61.4937 -0.990888 2.50892 22.4909 -5.77651
-164.864 73.2186 -27.1685 -186.911 86.5019 -172.787 1.57093 44.1243 -3.04257 -4.19966 -7.21017 0.123048 3.41399 16.1165 -1.87294 0.960134 -60.915 -2.17537 -0.0 0.0 0.0 -0.0 0.0 0.0 2.16482e-14 -7.73942e-13 -6.10517e-14 75.7706 32.8835 6.19996 -19.7468 -12.6967 38.0687 -0.0221383 -4.24452 -0.597632 3.88282e-10 2.34435e-10 -1.17623e-10 6.72322e-10 4.05477e-10 -2.02982e-10 3.88291e-10 2.34438e-10 -1.17643e-10 7.73091 5.47488 0.417314 3.88284e-10 2.34435e-10 -1.17627e-10 2.90554 0.965183 0.102902 3.883e-10 2.3444e-10 -1.17634e-10 10.2786 0.731801 0.0259123 3.88279e-10 2.34435e-10 -1.17615e-10 2.22167 -0.733487 -0.20892 2.1589e-14 -7.73957e-13 -6.12226e-14 -77.2907 21.555 0.307086 16.3108 -8.97927 -30.3315 0.750505 -23.8212 3.55735 8.56806e-11 1.9947e-11 -2.62662e-10 1.50852e-10 3.50388e-11 -4.51445e-10 8.56748e-11 1.99492e-11 -2.6265e-10 -7.73091 5.47488 -0.417314 8.56811e-11 1.99465e-11 -2.62669e-10 -2.90554 0.965183 -0.102902 8.56741e-11 1.99475e-11 -2.62663e-10 -10.2786 0.731801 -0.0259123 8.56831e-11 1.99473e-11 -2.62671e-10 -2.22167 -0.733487 0.20892 -2.03217e-16 0.0 -3.88251e-19 -11.5182 -58.3675 -13.4389 -4.43355 78.3118 4.46602 -0.308115 16.038 0.741949 2.03217e-16 0.0 3.88251e-19 32.9307 -69.2802 54.3377 1.19025 59.4437 -0.788717 2.67751 23.7898 -5.9047
-164.313 73.2206 -27.2327 -185.902 86.7268 -171.709 1.4574 44.0455 -2.96855 -4.24701 -7.17907 0.131114 3.40624 16.1571 -1.83543 1.02173 -60.9494 -2.05282 -0.0 0.0 0.0 -0.0 0.0 0.0 1.38428e-14 -4.22071e-13 -3.32436e-14 75.8194 32.909 6.20835 -19.7301 -12.6761 38.0288 -0.0214769 -4.18067 -0.588609 2.46811e-11 4.99481e-11 -6.4354e-11 4.17001e-11 8.65129e-11 -1.11815e-10 2.46873e-11 4.99475e-11 -6.4368e-11 7.73091 5.47488 0.417314 2.46829e-11 4.99459e-11 -6.43579e-11 2.90554 0.965183 0.102902 2.4696e-11 4.99476e-11 -6.43573e-11 10.2786 0.731801 0.0259123 2.46801e-11 4.99478e-11 -6.43478e-11 2.22167 -0.733487 -0.20892 1.37769e-14 -4.22088e-13 -3.34312e-14 -77.363 21.6149 0.342308 16.293 -8.96232 -30.2935 0.760514 -23.9676 3.58201 3.10704e-10 7.22219e-11 5.28856e-11 5.36541e-10 1.29256e-10 9.80012e-11 3.10698e-10 7.22271e-11 5.29004e-11 -7.73091 5.47488 -0.417314 3.10705e-10 7.22232e-11 5.28827e-11 -2.90554 0.965183 -0.102902 3.10696e-10 7.22231e-11 5.28812e-11 -10.2786 0.731801 -0.0259123 3.10706e-10 7.22224e-11 5.28706e-11 -2.22167 -0.733487 0.20892 -2.03217e-16 0.0 -3.88251e-19 -11.4793 -58.0658 -13.4403 -4.45898 78.3452 4.47425 -0.310003 16.1235 0.854852 2.03217e-16 0.0 3.88251e-19 32.3213 -69.2647 54.0191 1.07605 57.4854 -0.612588 2.85343 25.1144 -6.03674
-163.757 73.2197 -27.2986 -184.66 86.9742 -170.394 1.32936 43.9611 -2.87907 -4.29032 -7.1465 0.14064 3.40218 16.1851 -1.79423 1.07415 -60.9665 -1.92882 -0.0 0.0 0.0 -0.0 0.0 0.0 -3.94067e-15 -7.16281e-14 -3.47873e-15 75.8703 32.9401 6.21058 -19.7153 -12.6579 37.9933 -0.020987 -4.13212 -0.581751 -1.4966e-10 -2.54762e-11 -2.30495e-11 -2.6073e-10 -4.39871e-11 -4.06205e-11 -1.49656e-10 -2.54786e-11 -2.3059e-11 7.73091 5.47488 0.417314 -1.49658e-10 -2.5479e-11 -2.30527e-11 2.90554 0.965183 0.102902 -1.49648e-10 -2.54794e-11 -2.30471e-11 10.2786 0.731801 0.0259123 -1.49661e-10 -2.54766e-11 -2.30431e-11 2.22167 -0.733487 -0.20892 -4.01087e-15 -7.16463e-14 -3.67752e-15 -77.4262 21.6809 0.372518 16.2805 -8.95043 -30.2669 0.768186 -24.0785 3.60076 4.45739e-10 1.60855e-10 1.74775e-10 7.68479e-10 2.84911e-10 3.11088e-10 4.45732e-10 1.60861e-10 1.74791e-10 -7.73091 5.47488 -0.417314 4.4574e-10 1.60857e-10 1.74775e-10 -2.90554 0.965183 -0.102902 4.45731e-10 1.60856e-10 1.74768e-10 -10.2786 0.731801 -0.0259123 4.4574e-10 1.60855e-10 1.74756e-10 -2.22167 -0.733487 0.20892 -2.03217e-16 0.0 -3.88251e-19 -11.4212 -57.7706 -13.4079 -4.48462 78.3796 4.48335 -0.304417 16.2458 0.91179 2.03217e-16 0.0 3.88251e-19 31.7868 -69.2435 53.7098 0.987281 55.7144 -0.465152 2.98453 26.3235 -6.07493
